<svg width="37" height="49" viewBox="0 0 37 49" fill="none" xmlns="http://www.w3.org/2000/svg">
<path d="M32.2555 12.1067L29.5059 13.6184C27.5993 9.16753 23.0919 6.1316 17.9531 6.31967C11.2843 6.57042 6.08279 12.1712 6.32852 18.8306C6.43076 21.5083 7.39753 23.9477 8.95082 25.8929L6.25498 27.0052C4.24611 27.8345 1.92514 26.8583 1.16285 24.8254C0.492028 23.0271 0.0902529 21.0927 0.0131265 19.0688C-0.367125 8.92573 7.56075 0.394687 17.7163 0.0131808C24.0712 -0.225037 29.7947 2.78402 33.2815 7.55553C34.3846 9.06544 33.8967 11.2058 32.2573 12.1067H32.2555Z" fill="white" fill-opacity="0.08"/>
<path d="M30.017 20.6342C29.3426 21.6946 21.5869 34.2646 20.7296 35.3661C19.8722 36.4694 19.1368 36.8169 18.0535 36.8169C16.9701 36.8169 16.2347 36.3888 13.6358 33.9099C11.1623 31.551 8.62074 30.5552 6.65312 31.354L4.97607 32.0364L12.2349 45.4393C13.4223 47.6334 15.7182 49 18.2149 49C20.7117 49 23.0075 47.6334 24.1949 45.4411C24.1949 45.4411 35.2024 24.6356 35.9881 22.1782C36.9369 19.2103 36.4311 15.9218 36.4311 15.9218C36.4311 15.9218 32.3344 17.0001 30.0188 20.6378L30.017 20.6342Z" fill="white" fill-opacity="0.08"/>
</svg>
